<svg width="18" height="15" viewBox="0 0 18 15" fill="none" xmlns="http://www.w3.org/2000/svg">
<path fill-rule="evenodd" clip-rule="evenodd" d="M15.4958 0.944674V9.383C15.4958 10.5189 15.8168 10.7976 16.5758 10.7941H17.1688V13.9479H15.0198C14.3068 13.9842 13.6028 13.7825 13.0168 13.3744C12.4308 12.9663 11.9978 12.375 11.7848 11.6937C10.8718 13.3235 8.96278 14.2513 6.88178 14.2513C2.94478 14.2513 0.42578 10.847 0.50678 7.4322C0.50678 4.0561 2.73278 0.690674 7.06878 0.690674C9.58678 0.690674 11.0058 1.7913 11.8128 2.9943L11.7848 0.944674H15.4958ZM4.12678 7.471C4.12678 9.52761 5.73178 10.9987 7.84778 10.9987C10.0498 10.9987 11.6408 9.51 11.6408 7.471C11.6408 5.4319 10.0498 3.9891 7.84778 3.9891C5.71778 3.9891 4.12678 5.4143 4.12678 7.471Z" fill="#7000FF"/>
</svg>
