<svg width="15" height="15" viewBox="0 0 15 15" fill="none" xmlns="http://www.w3.org/2000/svg">
<path fill-rule="evenodd" clip-rule="evenodd" d="M7.81818 0.694092C3.49718 0.694092 0.763184 3.10349 0.763184 7.46029C0.763184 11.817 3.49318 14.2547 7.85318 14.2547C14.1122 14.2547 14.4962 10.0214 14.4962 10.0214H10.3762C10.3762 10.0214 10.0582 11.3443 7.85718 11.3443C5.45818 11.3443 4.71718 9.90149 4.71718 8.47269H14.7362C14.7852 8.13849 14.8122 7.80149 14.8172 7.46379C14.8172 3.10349 12.0732 0.694092 7.81818 0.694092ZM4.77019 6.17619C4.77019 5.11789 5.47618 3.60799 7.81818 3.60799C10.1612 3.60799 10.8132 5.11789 10.8132 6.17619H4.77019Z" fill="#7000FF"/>
</svg>
