<svg width="23" height="14" viewBox="0 0 23 14" fill="none" xmlns="http://www.w3.org/2000/svg">
<path d="M16.6232 0.680176C14.2492 0.680176 12.4609 1.6468 11.5719 3.11779C10.6723 1.6468 8.71087 0.680176 6.66837 0.680176C2.66437 0.680176 0.597168 3.2378 0.597168 6.388V13.9515H4.35067V6.9172C4.35067 5.4073 5.14437 4.095 6.96117 4.095C8.77797 4.095 9.73037 5.365 9.73037 6.8749V13.9621H13.4802V6.8643C13.4802 5.35439 14.3692 4.0844 16.1722 4.0844C17.9752 4.0844 18.8352 5.4073 18.8352 6.9066V13.9409H22.5852V6.388C22.5852 3.2378 20.6522 0.680176 16.6232 0.680176Z" fill="#7000FF"/>
</svg>
